name C:\Users\r0593348\3dpredictsim\Results\Batchsim_tmt_linear\Pog_s1_tmt_aCst_d05_k250_ig24.mot
datacolumns 128
datarows 4
range 1.07777172 1.11010487
endheader
time	pelvis_tilt	pelvis_list	pelvis_rotation	pelvis_tx	pelvis_ty	pelvis_tz	hip_flexion_l	hip_adduction_l	hip_rotation_l	hip_flexion_r	hip_adduction_r	hip_rotation_r	knee_angle_l	knee_angle_r	ankle_angle_l	ankle_angle_r	subtalar_angle_l	subtalar_angle_r	tmt_angle_l	tmt_angle_r	mtp_angle_l	mtp_angle_r	lumbar_extension	lumbar_bending	lumbar_rotation	arm_flex_l	arm_add_l	arm_rot_l	arm_flex_r	arm_add_r	arm_rot_r	elbow_flex_l	elbow_flex_r	pro_sup_l	pro_sup_r	glut_med1_l/activation	glut_med2_l/activation	glut_med3_l/activation	glut_min1_l/activation	glut_min2_l/activation	glut_min3_l/activation	semimem_l/activation	semiten_l/activation	bifemlh_l/activation	bifemsh_l/activation	sar_l/activation	add_long_l/activation	add_brev_l/activation	add_mag1_l/activation	add_mag2_l/activation	add_mag3_l/activation	tfl_l/activation	pect_l/activation	grac_l/activation	glut_max1_l/activation	glut_max2_l/activation	glut_max3_l/activation	iliacus_l/activation	psoas_l/activation	quad_fem_l/activation	gem_l/activation	peri_l/activation	rect_fem_l/activation	vas_med_l/activation	vas_int_l/activation	vas_lat_l/activation	med_gas_l/activation	lat_gas_l/activation	soleus_l/activation	tib_post_l/activation	flex_dig_l/activation	flex_hal_l/activation	tib_ant_l/activation	per_brev_l/activation	per_long_l/activation	per_tert_l/activation	ext_dig_l/activation	ext_hal_l/activation	ercspn_l/activation	intobl_l/activation	extobl_l/activation	glut_med1_r/activation	glut_med2_r/activation	glut_med3_r/activation	glut_min1_r/activation	glut_min2_r/activation	glut_min3_r/activation	semimem_r/activation	semiten_r/activation	bifemlh_r/activation	bifemsh_r/activation	sar_r/activation	add_long_r/activation	add_brev_r/activation	add_mag1_r/activation	add_mag2_r/activation	add_mag3_r/activation	tfl_r/activation	pect_r/activation	grac_r/activation	glut_max1_r/activation	glut_max2_r/activation	glut_max3_r/activation	iliacus_r/activation	psoas_r/activation	quad_fem_r/activation	gem_r/activation	peri_r/activation	rect_fem_r/activation	vas_med_r/activation	vas_int_r/activation	vas_lat_r/activation	med_gas_r/activation	lat_gas_r/activation	soleus_r/activation	tib_post_r/activation	flex_dig_r/activation	flex_hal_r/activation	tib_ant_r/activation	per_brev_r/activation	per_long_r/activation	per_tert_r/activation	ext_dig_r/activation	ext_hal_r/activation	ercspn_r/activation	intobl_r/activation	extobl_r/activation	
          1.07777172	         -2.92929250	         -2.14914883	          5.60489502	          1.34721465	          0.85766382	         -0.00272787	        -18.22459515	         -1.56576968	          6.83975383	         31.58938826	          2.87644383	         -3.06765035	         -6.49506740	        -14.41796961	          0.61444373	          7.09782816	          9.42563750	         -2.14463482	          3.84066463	          0.15444499	         18.87649904	         -0.09946015	         -1.94890729	          0.50266755	         -1.92132386	          7.99555763	        -13.45464397	         17.80283878	         -8.44659317	        -13.51066367	          8.31709013	         34.58662585	         13.58967194	         86.51662706	         86.51662706	          0.26733484	          0.10887221	          0.07444168	          0.30936083	          0.20698928	          0.11419446	          0.05000571	          0.05000051	          0.05000032	          0.06898159	          0.11213228	          0.08793780	          0.07424581	          0.05000278	          0.05000565	          0.05000242	          0.32917997	          0.07530053	          0.05000196	          0.05000282	          0.05000193	          0.05000239	          0.39227966	          0.63995712	          0.05000027	          0.05000072	          0.05413395	          0.22114535	          0.06433581	          0.06403519	          0.05737326	          0.31208322	          0.42092098	          0.30659671	          0.28276966	          0.28761200	          0.37480883	          0.05000005	          0.05898162	          0.13929478	          0.05000043	          0.05000011	          0.05000032	          0.05000006	          0.05000016	          0.05000051	          0.05898139	          0.05898144	          0.05000033	          0.05898156	          0.05898153	          0.05898084	          0.08283835	          0.05898170	          0.24372270	          0.05896205	          0.05000050	          0.13478409	          0.27791930	          0.10126343	          0.15129077	          0.09482993	          0.05000038	          0.05720076	          0.13404810	          0.05000116	          0.05000061	          0.15924347	          0.05898128	          0.05000075	          0.27209770	          0.29694917	          0.14612570	          0.05000092	          0.10476789	          0.11260965	          0.09781502	          0.05944575	          0.06096234	          0.05898146	          0.05000005	          0.05000102	          0.05000116	          0.52639956	          0.33341747	          0.19470224	          0.31277527	          0.53256900	          0.28046180	          0.06729850	          0.10224409	          0.10120992	
          1.08854944	         -2.92353584	         -2.24842075	          5.89901457	          1.36335709	          0.85658630	         -0.00253404	        -18.05582716	         -1.87510783	          6.62356462	         31.03883498	          3.25008506	         -2.82537060	         -8.50412469	        -14.82818866	         -0.14016355	          6.42566130	         10.35106317	         -2.60664880	          3.77041061	          0.11964458	         20.08645336	         -0.07743744	         -1.75351954	          0.72435789	         -1.99043514	          7.84663978	        -13.46064591	         17.99954211	         -9.48120587	        -13.50185187	          8.21831240	         35.68903273	         13.45646393	         86.51662706	         86.51662706	          0.22662638	          0.09229370	          0.06310618	          0.26225292	          0.17546999	          0.09680555	          0.05002139	          0.05000323	          0.05894786	          0.05847746	          0.09505759	          0.19589448	          0.10163636	          0.12324658	          0.05899280	          0.05899492	          0.27905418	          0.06387765	          0.05894852	          0.05016684	          0.05895641	          0.05898283	          0.33254516	          0.58653434	          0.05898222	          0.05898582	          0.05898164	          0.18747039	          0.16676198	          0.18745657	          0.14071680	          0.26456058	          0.35682506	          0.25990956	          0.23989162	          0.24381696	          0.31773555	          0.05000008	          0.05000035	          0.12994184	          0.05000020	          0.05000008	          0.05000034	          0.05739157	          0.06957616	          0.05720022	          0.05000003	          0.05000012	          0.10228071	          0.05000016	          0.05000016	          0.05000017	          0.07022416	          0.05000041	          0.20660976	          0.05000017	          0.06958552	          0.11426023	          0.26685155	          0.34593506	          0.21461330	          0.10287804	          0.05000139	          0.06960968	          0.11849040	          0.05001200	          0.06850453	          0.13499583	          0.05000072	          0.06957654	          0.55408853	          0.25173116	          0.12387444	          0.06957595	          0.15770796	          0.17205936	          0.14712266	          0.05937554	          0.06557247	          0.05000008	          0.05898191	          0.07485535	          0.06957752	          0.48368446	          0.36350444	          0.23449549	          0.26514766	          0.50169693	          0.23775446	          0.05705059	          0.08667482	          0.08579814	
          1.09932716	         -2.91370780	         -2.34972111	          6.16488614	          1.37978223	          0.85552537	         -0.00235495	        -17.80966832	         -2.17726316	          6.38940445	         30.30547991	          3.54146254	         -2.55290794	        -10.64438702	        -15.38804307	         -1.05331805	          5.93114980	         11.21860653	         -3.09021473	          3.62597464	         -0.12682222	         21.22829125	         -0.17454591	         -1.53602884	          0.95395166	         -2.04883508	          7.60669121	        -13.46425794	         18.11215086	        -10.52741781	        -13.49845441	          8.17113599	         36.76982635	         13.36619168	         86.51662706	         86.51662706	          0.33252004	          0.07823969	          0.05349673	          0.37295391	          0.14875044	          0.08206456	          0.05000419	          0.05000044	          0.05000031	          0.05000129	          0.08058615	          0.16606471	          0.08615990	          0.10447930	          0.05001014	          0.05001169	          0.30391058	          0.06609792	          0.05000175	          0.05000333	          0.05000182	          0.05000206	          0.28190745	          0.55617441	          0.05000082	          0.05000420	          0.05000079	          0.15892328	          0.14136836	          0.15891166	          0.11928921	          0.22427448	          0.30248935	          0.22033169	          0.20336217	          0.20668999	          0.26935249	          0.05000006	          0.09391319	          0.16520671	          0.05000035	          0.05000011	          0.05000036	          0.05475691	          0.05898142	          0.05000013	          0.25158771	          0.25519726	          0.32492143	          0.38351157	          0.24011338	          0.24070339	          0.08126618	          0.07448638	          0.17514828	          0.09196665	          0.05899019	          0.09686131	          0.22621672	          0.29325780	          0.18193327	          0.10266044	          0.05000092	          0.05901276	          0.11172683	          0.12205980	          0.05807347	          0.11443975	          0.05898086	          0.05898184	          0.46971450	          0.21339893	          0.22381461	          0.05898127	          0.13369299	          0.14585905	          0.12471956	          0.05033425	          0.05558758	          0.05668495	          0.05000050	          0.06345692	          0.05898283	          0.54643327	          0.40750876	          0.19879093	          0.45221000	          0.57843225	          0.25299892	          0.06511642	          0.11420792	          0.07273319	
          1.11010487	         -2.90178672	         -2.44108223	          6.39440954	          1.39629106	          0.85449485	         -0.00214946	        -17.46712148	         -2.46466132	          6.15845031	         29.48192347	          3.80836515	         -2.28326034	        -12.92207746	        -15.86623006	         -2.11066311	          5.52454828	         12.04830089	         -3.58507643	          3.41482808	         -0.05531146	         22.21074070	         -0.18758095	         -1.31883616	          1.17836865	         -2.09727610	          7.30853878	        -13.47603128	         18.16794779	        -11.53757330	        -13.49514634	          8.17865580	         37.81197664	         13.29292447	         86.51662706	         86.51662706	          0.28188566	          0.06632576	          0.05000041	          0.31616249	          0.12609952	          0.06956825	          0.05858570	          0.05000050	          0.05000055	          0.05000031	          0.06831525	          0.18580685	          0.08356358	          0.08857142	          0.05003381	          0.05001616	          0.25763412	          0.05901381	          0.05000337	          0.05001025	          0.05000637	          0.05000515	          0.23897993	          0.49861372	          0.05000119	          0.05000334	          0.05000067	          0.13472319	          0.13472193	          0.13472211	          0.13472190	          0.19012296	          0.25642764	          0.18678056	          0.17239519	          0.17521644	          0.22833691	          0.05000020	          0.09527581	          0.15787701	          0.05000045	          0.11856845	          0.05000084	          0.08565882	          0.05000006	          0.05000009	          0.34787726	          0.35527253	          0.37675028	          0.32511333	          0.22424248	          0.21541414	          0.06997720	          0.09693890	          0.14847755	          0.07796267	          0.05000804	          0.08211179	          0.19176956	          0.24860238	          0.17240318	          0.15521642	          0.05000072	          0.05002795	          0.09909022	          0.22682433	          0.16854471	          0.15226397	          0.05000024	          0.05000050	          0.39818856	          0.18090365	          0.18973386	          0.05000014	          0.11333944	          0.19471980	          0.14537277	          0.05000006	          0.05000011	          0.05000001	          0.05000002	          0.05379435	          0.05000156	          0.60641213	          0.36302761	          0.18810094	          0.67674686	          0.60669068	          0.34926442	          0.08235898	          0.09681686	          0.06165772	
